<svg version="1.1" xmlns="http://www.w3.org/2000/svg" xmlns:xlink="http://www.w3.org/1999/xlink"  viewBox="0 0 32 32" id="wr-icon-weather-type--2"><g><rect width="100%" height="100%" fill="#FFFFFF" class="wr-icon-weather-type__svg-background"></rect><path class="wr-icon-weather-type__svg-light-cloud" d="M18.9,8.2c-0.2,0-0.4,0-0.6,0c-0.8-2.9-3.3-5-6.4-5c-3.1,0-5.7,2.1-6.4,5c-0.2,0-0.4,0-0.6,0 C2.2,8.2,0,10.4,0,13.1C0,15.8,2.2,18,4.9,18h11h0.6h2.4c2.7,0,4.9-2.2,4.9-4.9C23.8,10.4,21.6,8.2,18.9,8.2z M18.9,15.7h-2.4 h-0.6h-11c-1.4,0-2.6-1.2-2.6-2.6s1.2-2.6,2.6-2.6c0.9,0,1.8,0.5,2.2,1.3l2-1.2C8.7,10,8.2,9.5,7.6,9.1c0.4-2,2.2-3.5,4.3-3.5 c2.4,0,4.4,2,4.4,4.4c0,0.9-0.3,1.8-0.8,2.5h2.6c0.2-0.6,0.4-1.3,0.5-1.9c0.1,0,0.3,0,0.4,0c1.4,0,2.6,1.2,2.6,2.6 S20.4,15.7,18.9,15.7z"></path><path class="wr-icon-weather-type__svg-partial-moon" d="M31,11.3c-3.9,0-7.1-3.2-7.1-7.1c0-1.6,0.5-3.1,1.5-4.3c-3.5,0.4-6.2,3.4-6.2,7c3.2,0.2,5.7,2.8,5.7,6 c0,0.3,0,0.6-0.1,0.9c0.5,0.1,0.9,0.1,1.4,0.1c2.3,0,4.3-1.1,5.6-2.8C31.6,11.3,31.3,11.3,31,11.3z"></path></g></svg>