<svg version="1.1" xmlns="http://www.w3.org/2000/svg" xmlns:xlink="http://www.w3.org/1999/xlink"  viewBox="0 0 80 80" id="wr-icon-weather-type--32"><g><rect width="100%" height="100%" fill="#FFFFFF" class="wr-icon-weather-type__svg-background"></rect><g class="wr-icon-weather-type__svg-text"> <path d="M1 24h4.49v7.87h8.27V24h4.49v20.47h-4.49v-8.85H5.49v8.85H1zM27.64 24h4.61l7.64 20.52h-4.67l-1.54-4.57H26l-1.6 4.57h-4.51zm-.43 12.59h5.29L29.93 29h-.06zM41.35 40.91l11-13.16H42.2V24h16.08v3.56l-11 13.16h11.29v3.79H41.35zM66.92 36.49L59.4 24h5.07l4.78 8.1L74 24h5l-7.58 12.6v7.87h-4.5z"></path> </g></g></svg>