<svg version="1.1" xmlns="http://www.w3.org/2000/svg" xmlns:xlink="http://www.w3.org/1999/xlink"  viewBox="0 0 32 32" id="wr-icon-weather-type--38"><g><rect width="100%" height="100%" fill="#FFFFFF" class="wr-icon-weather-type__svg-background"></rect><g class="wr-icon-weather-type__svg-drizzle"> <circle cx="10.8" cy="20" r="0.6"></circle> <circle cx="13.4" cy="20" r="0.6"></circle> <circle cx="16" cy="20" r="0.6"></circle> <circle cx="18.6" cy="20" r="0.6"></circle> <circle cx="21.2" cy="20" r="0.6"></circle> <circle cx="10.8" cy="22.6" r="0.6"></circle> <circle cx="13.4" cy="22.6" r="0.6"></circle> <circle cx="16" cy="22.6" r="0.6"></circle> <circle cx="18.6" cy="22.6" r="0.6"></circle> <circle cx="21.2" cy="22.6" r="0.6"></circle> <circle cx="13.4" cy="25.2" r="0.6"></circle> <circle cx="16" cy="25.2" r="0.6"></circle> <circle cx="18.6" cy="25.2" r="0.6"></circle> </g><path class="wr-icon-weather-type__svg-thick-cloud" d="M23.1,8.2c-0.2,0-0.4,0-0.6,0c-0.8-2.9-3.4-5-6.5-5c-3.1,0-5.7,2.1-6.5,5c-0.2,0-0.4,0-0.6,0C6.2,8.2,4,10.4,4,13.1 C4,15.8,6.2,18,8.9,18H20h0.5h2.6c2.7,0,4.9-2.2,4.9-4.9C28,10.4,25.8,8.2,23.1,8.2z M23.1,15.7h-2.6H20H8.9 c-1.4,0-2.6-1.2-2.6-2.6c0-1.4,1.2-2.6,2.6-2.6c0.9,0,1.8,0.5,2.3,1.3l2-1.2C12.8,10,12.3,9.5,11.7,9c0.4-2,2.2-3.5,4.3-3.5 c2.4,0,4.4,2,4.4,4.4c0,0.9-0.3,1.8-0.8,2.5h2.6c0.2-0.6,0.4-1.3,0.5-1.9c0.1,0,0.3,0,0.4,0c1.4,0,2.6,1.2,2.6,2.6 C25.7,14.5,24.5,15.7,23.1,15.7z"></path></g></svg>