<svg version="1.1" xmlns="http://www.w3.org/2000/svg" xmlns:xlink="http://www.w3.org/1999/xlink"  viewBox="0 0 32 32" id="wr-icon-weather-type--43"><g><rect width="100%" height="100%" fill="#FFFFFF" class="wr-icon-weather-type__svg-background"></rect><path class="wr-icon-weather-type__svg-thick-cloud" d="M23,8.2c-0.2,0-0.4,0-0.6,0c-0.8-2.9-3.4-5-6.4-5c-3.1,0-5.7,2.1-6.4,5c-0.2,0-0.4,0-0.6,0c-2.7,0-4.9,2.2-4.9,4.9 c0,2.7,2.2,4.9,4.9,4.9H12v-2.3H9c-1.4,0-2.6-1.2-2.6-2.6c0-1.4,1.2-2.6,2.6-2.6c0.9,0,1.8,0.5,2.2,1.3l2-1.2 c-0.4-0.6-0.9-1.2-1.5-1.6c0.4-2,2.2-3.5,4.3-3.5c2.4,0,4.4,2,4.4,4.4c0,0.9-0.3,1.8-0.8,2.5h2.6c0.2-0.6,0.4-1.3,0.5-1.9 c0.1,0,0.3,0,0.4,0c1.4,0,2.6,1.2,2.6,2.6c0,1.4-1.2,2.6-2.6,2.6H20v2.3H23c2.7,0,4.9-2.2,4.9-4.9C27.9,10.4,25.7,8.2,23,8.2z"></path><g class="wr-icon-weather-type__svg-snowflake"> <polygon points="17.4,20.1 13.9,16.6 14.6,15.9 18.1,19.4 17.4,20.1"></polygon> <polygon points="15.8,20.5 14.9,20.2 16.2,15.5 17.1,15.8 15.8,20.5"></polygon> <polygon points="13.8,19.1 13.5,18.2 18.2,16.9 18.5,17.8 13.8,19.1"></polygon> </g></g></svg>