<svg version="1.1" xmlns="http://www.w3.org/2000/svg" xmlns:xlink="http://www.w3.org/1999/xlink"  viewBox="0 0 32 32" id="wr-icon-weather-type--45"><g><rect width="100%" height="100%" fill="#FFFFFF" class="wr-icon-weather-type__svg-background"></rect><path class="wr-icon-weather-type__svg-thick-cloud" d="M23,8.2c-0.2,0-0.4,0-0.6,0c-0.8-2.9-3.4-5-6.4-5s-5.7,2.1-6.4,5c-0.2,0-0.4,0-0.6,0c-2.7,0-4.9,2.2-4.9,4.9 c0,2.7,2.2,4.9,4.9,4.9H12v-2.3H9c-1.4,0-2.6-1.2-2.6-2.6c0-1.4,1.2-2.6,2.6-2.6c0.9,0,1.8,0.5,2.2,1.3l2-1.2 c-0.4-0.6-0.9-1.2-1.5-1.6c0.4-2,2.2-3.5,4.3-3.5c2.4,0,4.4,2,4.4,4.4c0,0.9-0.3,1.8-0.8,2.5h2.6c0.2-0.6,0.4-1.3,0.5-1.9 c0.1,0,0.3,0,0.4,0c1.4,0,2.6,1.2,2.6,2.6c0,1.4-1.2,2.6-2.6,2.6H20v2.3H23c2.7,0,4.9-2.2,4.9-4.9C27.9,10.4,25.7,8.2,23,8.2z"></path><polygon class="wr-icon-weather-type__svg-lightning" points="15.4,14.8 12,21.4 15.9,21.4 13.1,28.6 13.3,28.8 19.6,19.4 15.9,19.4 18.8,14.8"></polygon></g></svg>