<svg version="1.1" xmlns="http://www.w3.org/2000/svg" xmlns:xlink="http://www.w3.org/1999/xlink"  viewBox="0 0 32 32" id="wr-icon-weather-type--46"><g><rect width="100%" height="100%" fill="#FFFFFF" class="wr-icon-weather-type__svg-background"></rect><path class="wr-icon-weather-type__svg-tropical-storm" d="M11.3,14.7c0,0-0.6-0.8-1.2-2.2c-0.3-0.7-0.5-1.7-0.5-2.8c0-0.6,0.1-1.1,0.2-1.7c0.1-0.6,0.3-1.2,0.6-1.8s0.6-1.2,1-1.7 c0.4-0.5,0.9-1.1,1.4-1.5c0.5-0.5,1.1-0.9,1.7-1.2c0.6-0.3,1.2-0.6,1.7-0.8c1.2-0.4,2.2-0.6,2.9-0.8C20,0,20.4,0,20.4,0 S19,0.2,17.1,0.9c-1,0.3-1.9,0.9-2.7,1.6c-0.8,0.7-1.5,1.5-2,2.3c-0.5,0.8-0.7,1.7-0.8,2.4s-0.1,1.3,0,1.7 c0.2,0.9,0.5,1.3,0.5,1.3s0.2-1,0.9-2.4c0.3-0.7,0.9-1.5,1.8-2.2c0.8-0.7,1.9-1.3,3.2-1.6c0.6-0.2,1.3-0.3,2-0.3 c0.7,0,1.4,0,2.1,0.1s1.4,0.3,2,0.5c0.6,0.2,1.2,0.5,1.7,0.8c1.1,0.6,1.9,1.2,2.5,1.7C28.7,7.3,29,7.6,29,7.6s-1.1-1-2.9-1.9 c-0.9-0.5-1.9-0.8-3-1c-1.1-0.2-2.1-0.2-3,0.1c-0.9,0.2-1.7,0.5-2.3,0.9c-0.6,0.4-1,0.8-1.3,1.2C16,7.5,15.9,8,15.9,8 s0.8-0.5,2.3-0.9C19,6.9,19.9,6.9,21,7c1.1,0.2,2.2,0.6,3.3,1.3c0.5,0.4,1.1,0.8,1.5,1.3c0.5,0.5,0.9,1,1.3,1.6 c0.4,0.6,0.7,1.2,0.9,1.8c0.2,0.6,0.4,1.2,0.5,1.8c0.2,1.2,0.3,2.2,0.3,3c0,0.7,0,1.2,0,1.2s0-1.4-0.4-3.4c-0.2-1-0.6-2-1.2-2.9 c-0.5-0.9-1.2-1.7-2-2.2c-0.8-0.6-1.5-0.9-2.2-1.1c-0.7-0.2-1.2-0.3-1.7-0.2c-0.9,0.1-1.3,0.3-1.3,0.3s0.9,0.3,2.1,1.2 c0.6,0.4,1.3,1.2,1.8,2.1s0.9,2.1,1,3.4c0.1,0.6,0.1,1.3,0,2c-0.1,0.7-0.2,1.3-0.4,2c-0.2,0.6-0.5,1.3-0.8,1.8 c-0.3,0.6-0.7,1.1-1.1,1.5c-0.8,0.9-1.5,1.6-2.1,2.1s-0.9,0.7-0.9,0.7s1.1-0.9,2.4-2.4c0.6-0.8,1.1-1.7,1.5-2.6 c0.3-1,0.5-2,0.5-2.9c0-0.9-0.2-1.7-0.5-2.3c-0.2-0.6-0.5-1.1-0.8-1.4c-0.6-0.6-1-0.8-1-0.8s0.3,0.9,0.3,2.4 c0,0.8-0.2,1.7-0.6,2.7c-0.4,1-1.1,2-2.1,2.9c-0.5,0.4-1,0.8-1.6,1.2c-0.6,0.3-1.2,0.6-1.9,0.8s-1.3,0.4-1.9,0.5 c-0.6,0.1-1.3,0.1-1.9,0.1c-1.2-0.1-2.2-0.3-2.9-0.4c-0.7-0.2-1.1-0.3-1.1-0.3s1.4,0.3,3.3,0.4c1,0,2-0.1,3-0.4 c1-0.3,1.9-0.8,2.6-1.3c0.7-0.6,1.2-1.2,1.6-1.7c0.4-0.6,0.6-1.1,0.6-1.5c0.1-0.8,0-1.3,0-1.3s-0.6,0.8-1.8,1.7 c-0.6,0.5-1.5,0.9-2.6,1.1c-1.1,0.2-2.3,0.3-3.6,0c-0.6-0.1-1.3-0.3-1.9-0.6c-0.6-0.3-1.2-0.6-1.8-1C7,18.7,6.5,18.3,6,17.8 c-0.5-0.5-0.9-1-1.2-1.5c-0.7-1-1.1-2-1.4-2.6C3.1,13,3,12.6,3,12.6s0.5,1.3,1.6,3c0.5,0.8,1.3,1.6,2.1,2.2 c0.8,0.6,1.7,1.1,2.6,1.3c0.9,0.2,1.7,0.3,2.4,0.3c0.7,0,1.2-0.2,1.6-0.4c0.8-0.4,1.1-0.7,1.1-0.7s-1,0-2.5-0.4 c-0.8-0.2-1.6-0.7-2.5-1.4c-0.4-0.4-0.8-0.8-1.2-1.3c-0.4-0.5-0.7-1-1-1.6C7,13,6.7,12.3,6.6,11.7C6.4,11,6.3,10.3,6.3,9.6 c0-0.7,0-1.4,0.1-2c0.1-0.7,0.3-1.3,0.5-1.9c0.4-1.2,0.9-2.1,1.3-2.8c0.4-0.7,0.6-1,0.6-1S8,3.2,7.4,5.1C7,6,6.9,7.1,6.9,8.1 c0,1.1,0.2,2.1,0.6,3c0.4,0.9,0.8,1.6,1.3,2.1c0.5,0.5,0.9,0.9,1.3,1.1C10.8,14.7,11.3,14.7,11.3,14.7z"></path></g></svg>