<svg version="1.1" xmlns="http://www.w3.org/2000/svg" xmlns:xlink="http://www.w3.org/1999/xlink"  viewBox="0 0 80 80" id="wr-icon-weather-type--6"><g><rect width="100%" height="100%" fill="#FFFFFF" class="wr-icon-weather-type__svg-background"></rect><g class="wr-icon-weather-type__svg-text"> <path d="M10.5 23.36h14.86v3.91H15.15v4.88H24v3.61h-8.85v8.74H10.5zM37.38 22.86c6.54 0 10.39 4.88 10.39 11.16 0 6.1-3.85 11-10.39 11S27 40.11 27 34c0-6.26 3.84-11.14 10.38-11.14zm0 18.24c4.17 0 5.74-3.55 5.74-7.07 0-3.7-1.57-7.25-5.74-7.25s-5.74 3.54-5.74 7.22c0 3.54 1.57 7.09 5.74 7.09zM66.07 42.1a7.15 7.15 0 0 1-5.8 2.9c-6.54 0-10.39-4.89-10.39-11 0-6.28 3.85-11.16 10.39-11.16 4.32 0 8.41 2.66 8.91 7.46h-4.45a4.33 4.33 0 0 0-4.47-3.55c-4.17 0-5.74 3.55-5.74 7.25 0 3.52 1.57 7.07 5.74 7.07 3 0 4.77-1.63 5-4.56h-4.64v-3.44h8.88V44.5h-3z"></path> </g></g></svg>