<svg version="1.1" xmlns="http://www.w3.org/2000/svg" xmlns:xlink="http://www.w3.org/1999/xlink"  viewBox="0 0 32 32" id="wr-icon-weather-type--7"><g><rect width="100%" height="100%" fill="#FFFFFF" class="wr-icon-weather-type__svg-background"></rect><path class="wr-icon-weather-type__svg-light-cloud" d="M23,8.2c-0.2,0-0.4,0-0.6,0c-0.8-2.9-3.3-5-6.4-5c-3.1,0-5.7,2.1-6.4,5c-0.2,0-0.4,0-0.6,0 c-2.7,0-4.9,2.2-4.9,4.9C4.1,15.8,6.3,18,9,18h11h0.6H23c2.7,0,4.9-2.2,4.9-4.9C27.9,10.4,25.7,8.2,23,8.2z M23,15.7h-2.4H20H9 c-1.4,0-2.6-1.2-2.6-2.6s1.2-2.6,2.6-2.6c0.9,0,1.8,0.5,2.2,1.3l2-1.2c-0.4-0.6-0.9-1.2-1.5-1.6c0.4-2,2.2-3.5,4.3-3.5 c2.4,0,4.4,2,4.4,4.4c0,0.9-0.3,1.8-0.8,2.5h2.6c0.2-0.6,0.4-1.3,0.5-1.9c0.1,0,0.3,0,0.4,0c1.4,0,2.6,1.2,2.6,2.6 S24.5,15.7,23,15.7z"></path></g></svg>