<svg version="1.1" xmlns="http://www.w3.org/2000/svg" xmlns:xlink="http://www.w3.org/1999/xlink"  viewBox="0 0 32 32" id="wr-icon-weather-type--9"><g><rect width="100%" height="100%" fill="#FFFFFF" class="wr-icon-weather-type__svg-background"></rect><path class="wr-icon-weather-type__svg-thick-cloud" d="M19,8.2c-0.2,0-0.4,0-0.6,0c-0.8-2.9-3.4-5-6.4-5c-3.1,0-5.7,2.1-6.4,5c-0.2,0-0.4,0-0.6,0C2.2,8.2,0,10.4,0,13.1 s2.2,4.9,4.9,4.9H8v-2.3H4.9c-1.4,0-2.6-1.2-2.6-2.6c0-1.4,1.2-2.6,2.6-2.6c0.9,0,1.8,0.5,2.2,1.3l2-1.2C8.7,10,8.2,9.5,7.7,9.1 c0.4-2,2.2-3.5,4.3-3.5c2.4,0,4.4,2,4.4,4.4c0,0.9-0.3,1.8-0.8,2.5h2.6c0.2-0.6,0.4-1.3,0.5-1.9c0.1,0,0.3,0,0.4,0 c1.4,0,2.6,1.2,2.6,2.6c0,1.4-1.2,2.6-2.6,2.6h-3.1v2.3H19c2.7,0,4.9-2.2,4.9-4.9S21.7,8.2,19,8.2z"></path><path class="wr-icon-weather-type__svg-raindrop" d="M14.1,18.4C14.1,18.4,14.1,18.4,14.1,18.4l0.4-4.7l-4,2.3h0c-0.7,0.4-1.2,1.2-1.2,2.1 c0,1.3,1.1,2.4,2.4,2.4C13,20.6,14,19.7,14.1,18.4L14.1,18.4L14.1,18.4z"></path><path class="wr-icon-weather-type__svg-partial-moon" d="M31.1,11.4c-3.9,0-7.1-3.2-7.1-7.1c0-1.6,0.5-3.1,1.5-4.3c-3.5,0.4-6.2,3.4-6.2,7 c3.2,0.2,5.7,2.8,5.7,6c0,0.3,0,0.6-0.1,0.9c0.5,0.1,0.9,0.1,1.4,0.1c2.3,0,4.3-1.1,5.6-2.8C31.7,11.4,31.4,11.4,31.1,11.4z"></path></g></svg>