<svg version="1.1" xmlns="http://www.w3.org/2000/svg" xmlns:xlink="http://www.w3.org/1999/xlink" viewBox="0 0 80 80">
      <g><g class="wr-icon-weather-type__svg-text"> <path d="M4.39 26.44c0 2.11 1.65 2.93 3.53 2.93 1.23 0 3.1-.36 3.1-2s-2.39-2-4.74-2.62-4.75-1.53-4.75-4.51c0-3.24 3.08-4.8 6-4.8 3.32 0 6.38 1.44 6.38 5.11h-3.42c-.11-1.91-1.47-2.4-3.15-2.4-1.12 0-2.41.47-2.41 1.8s.76 1.38 4.76 2.4c1.16.29 4.73 1 4.73 4.62 0 2.91-2.3 5.08-6.63 5.08-3.53.03-6.79-1.7-6.79-5.61zM20.73 15.85h3.6l6 15.85h-3.68l-1.21-3.53h-6l-1.21 3.53h-3.54zm-.33 9.73h4.13l-2-5.82zM31.56 15.85H35l6.7 10.64V15.85H45V31.7h-3.48l-6.63-10.61V31.7h-3.33zM48 15.85h6.88c4.13 0 7.23 2.58 7.23 7.84 0 4.6-2.37 8-7.23 8H48zm3.5 12.92h3.13c2 0 4-1.24 4-4.75 0-3.2-1.12-5.24-4.6-5.24H51.5zM4.39 46.42c0 2.11 1.65 2.93 3.53 2.93 1.23 0 3.1-.35 3.1-2s-2.39-2-4.73-2.62-4.75-1.53-4.75-4.51c0-3.24 3.08-4.8 6-4.8 3.33 0 6.38 1.44 6.38 5.11h-3.43c-.11-1.91-1.47-2.4-3.15-2.4-1.12 0-2.41.47-2.41 1.8s.76 1.38 4.76 2.4c1.16.29 4.73 1 4.73 4.62 0 2.91-2.3 5.08-6.63 5.08-3.53.03-6.79-1.7-6.79-5.61zM19.46 38.76h-4.77v-2.93h13.05v2.93H23v12.93h-3.54zM36.61 35.46c4.94 0 7.84 3.66 7.84 8.37s-2.9 8.24-7.84 8.24-7.84-3.66-7.84-8.24 2.9-8.37 7.84-8.37zm0 13.68c3.15 0 4.33-2.66 4.33-5.31s-1.18-5.44-4.33-5.44-4.33 2.66-4.33 5.44 1.18 5.3 4.33 5.3zM46.27 35.83h8.59a4.37 4.37 0 0 1 4.67 4.37 3.9 3.9 0 0 1-2.52 4c1.72.44 2.21 2.11 2.32 3.71.07 1 0 2.86.67 3.75h-3.5a17.46 17.46 0 0 1-.56-3.8c-.25-1.66-.89-2.4-2.66-2.4h-3.5v6.19h-3.51zM49.78 43h3.84c1.56 0 2.41-.67 2.41-2.26s-.85-2.2-2.41-2.2h-3.84zM61.83 35.83h4.93l3.73 10.9 3.53-10.9H79v15.86h-3.28V40.45l-3.95 11.24h-2.7l-3.91-11.13v11.13h-3.33z"></path> </g>
      </g>
    </svg>
