<svg version="1.1" xmlns="http://www.w3.org/2000/svg" xmlns:xlink="http://www.w3.org/1999/xlink" viewBox="0 0 32 32">
      <g>
        <path d="undefined" /><path d="undefined" /><path d="M19,8.2c-0.2,0-0.4,0-0.6,0c-0.8-2.9-3.4-5-6.4-5s-5.7,2.1-6.4,5c-0.2,0-0.4,0-0.6,0C2.2,8.2,0,10.4,0,13.1 c0,2.7,2.2,4.9,4.9,4.9H8v-2.3H4.9c-1.4,0-2.6-1.2-2.6-2.6c0-1.4,1.2-2.6,2.6-2.6c0.9,0,1.8,0.5,2.2,1.3l2-1.2 C8.7,10,8.2,9.5,7.7,9.1c0.4-2,2.2-3.5,4.3-3.5c2.4,0,4.4,2,4.4,4.4c0,0.9-0.3,1.8-0.8,2.5h2.6c0.2-0.6,0.4-1.3,0.5-1.9 c0.1,0,0.3,0,0.4,0c1.4,0,2.6,1.2,2.6,2.6c0,1.4-1.2,2.6-2.6,2.6h-3.1v2.3H19c2.7,0,4.9-2.2,4.9-4.9C23.9,10.4,21.7,8.2,19,8.2z" /><path d="M7.6,24.1C7.6,24.1,7.6,24.1,7.6,24.1L8,19.5l-4,2.3l0,0c-0.7,0.4-1.2,1.2-1.2,2.1 c0,1.3,1.1,2.4,2.4,2.4C6.4,26.3,7.4,25.3,7.6,24.1L7.6,24.1L7.6,24.1z" /><path d="M14.1,18.4C14.1,18.4,14.1,18.4,14.1,18.4l0.4-4.7l-4,2.3h0c-0.7,0.4-1.2,1.2-1.2,2.1 c0,1.3,1.1,2.4,2.4,2.4C13,20.6,14,19.6,14.1,18.4L14.1,18.4L14.1,18.4z" />
      </g>
    </svg>