<svg version="1.1" xmlns="http://www.w3.org/2000/svg" xmlns:xlink="http://www.w3.org/1999/xlink" viewBox="0 0 32 32">
      <g>
<g class="wr-icon-weather-type__svg-sun"> <circle cx="16" cy="13.1" r="7.1"></circle> <polygon points="17.2,4.8 14.8,4.8 14.8,0 17.2,0 17.2,4.8"></polygon> <polygon points="10.8,6.5 8.4,2.3 10.4,1.2 12.9,5.4 10.8,6.5"></polygon> <polygon points="21.6,25.1 19.1,20.9 21.2,19.7 23.6,23.9 21.6,25.1"></polygon> <polygon points="26.8,20.7 22.6,18.3 23.8,16.3 27.9,18.7 26.8,20.7"></polygon> <polygon points="7.7,14.3 2.9,14.3 2.9,12 7.7,12 7.7,14.3"></polygon> <polygon points="29.1,14.3 24.3,14.3 24.3,12 29.1,12 29.1,14.3"></polygon> <polygon points="5.2,20.7 4.1,18.7 8.2,16.3 9.4,18.3 5.2,20.7"></polygon> <polygon points="23.8,10 22.6,8 26.8,5.6 27.9,7.6 23.8,10"></polygon> <polygon points="21.2,6.5 19.1,5.4 21.6,1.2 23.6,2.3 21.2,6.5"></polygon> <polygon points="10.4,25.1 8.4,23.9 10.8,19.7 12.9,20.9 10.4,25.1"></polygon> <polygon points="17.2,26.2 14.8,26.2 14.8,21.4 17.2,21.4 17.2,26.2"></polygon> <polygon points="8.2,10 4.1,7.6 5.2,5.6 9.4,8 8.2,10"></polygon> </g>
      </g>
    </svg>
