<svg version="1.1" xmlns="http://www.w3.org/2000/svg" xmlns:xlink="http://www.w3.org/1999/xlink" viewBox="0 0 80 80">
      <g><g class="wr-icon-weather-type__svg-text"> <path d="M5.5 23.5H12l4.91 14.45H17l4.63-14.45h6.5v21H23.8V29.62h-.06l-5.15 14.89H15L9.88 29.77h-.06v14.74H5.5zM31.45 23.5h4.62v21h-4.62zM43.13 37.54c0 2.79 2.18 3.88 4.65 3.88 1.62 0 4.09-.47 4.09-2.62s-3.15-2.65-6.24-3.47-6.27-2-6.27-6c0-4.29 4.06-6.35 7.86-6.35 4.39 0 8.41 1.91 8.41 6.77h-4.46c-.17-2.51-1.95-3.16-4.17-3.16-1.47 0-3.18.62-3.18 2.38s1 1.82 6.27 3.18c1.53.38 6.24 1.36 6.24 6.12 0 3.86-3 6.74-8.74 6.74-4.65 0-9-2.29-8.94-7.47zM63.58 27.38h-6.3V23.5H74.5v3.89h-6.3v17.12h-4.62z"></path> </g>
      </g>
    </svg>
